Coordinates
version=1
nRows=6
nColumns=34
inDegrees=yes

Units are S.I. units (second, meters, Newtons, ...)
If the header above contains a line with 'inDegrees', this indicates whether rotational values are in degrees (yes) or radians (no).

endheader
time	pelvis_tilt	pelvis_list	pelvis_rotation	pelvis_tx	pelvis_ty	pelvis_tz	hip_flexion_r	hip_adduction_r	hip_rotation_r	knee_angle_r	ankle_angle_r	subtalar_angle_r	mtp_angle_r	hip_flexion_l	hip_adduction_l	hip_rotation_l	knee_angle_l	ankle_angle_l	subtalar_angle_l	mtp_angle_l	lumbar_extension	lumbar_bending	lumbar_rotation	arm_flex_r	arm_add_r	arm_rot_r	elbow_flex_r	pro_sup_r	arm_flex_l	arm_add_l	arm_rot_l	elbow_flex_l	pro_sup_l
      1.48333330	     -0.02662033	     -0.58671110	      1.15002032	      1.70471550	      0.86713860	      0.07844398	     -3.14005432	      4.87765800	     -0.41327487	      0.00000000	      2.51549190	    -24.45313487	      0.00000000	      2.10517388	    -11.83710560	      4.27082153	      6.36427814	      2.70047456	     -4.60306112	      0.00000000	     -5.29678267	      2.35368213	      2.31818160	      7.22224582	     -5.86670158	     16.61910221	    120.16098272	     89.50836135	     -2.46667289	     -8.47080069	     23.86396010	    112.61174738	     90.57537910
      1.50000000	     -0.05109717	     -0.48001026	      1.47398147	      1.70410764	      0.86826722	      0.07523019	     -3.11222876	      4.52634966	     -0.50718700	      0.00000000	      1.68991016	    -25.57106570	      0.00000000	      1.91782338	    -11.41505977	      5.12081302	      5.75113287	      2.08394665	     -5.45546488	      0.00000000	     -5.26563574	      2.22195271	      3.87732529	      6.09510425	     -6.33704171	     15.82910619	    121.65948043	     86.85538814	      0.18719878	     -8.78164181	     26.98728379	    110.32175585	     86.21708573
      1.51666670	     -0.13615009	     -0.42800706	      1.66285577	      1.70393339	      0.86881126	      0.07175799	     -3.02396435	      4.23785308	     -0.63617587	      0.00000000	      1.74880301	    -25.60044340	      0.00000000	      1.88794091	    -11.12252481	      5.18034203	      5.44872858	      2.14311337	     -5.34990759	      0.00000000	     -5.26203016	      2.14598640	      3.75117201	      6.36150204	     -6.40366514	     15.95124361	    121.66623220	     86.81796574	      0.59847126	     -8.67480037	     26.95981259	    110.15949062	     86.10815076
      1.53333330	     -0.10905620	     -0.32684569	      1.93616234	      1.70395205	      0.86878889	      0.06757513	     -3.05999534	      3.87415429	     -0.90420831	      0.00000000	      1.70726951	    -25.60952706	      0.00000000	      1.78801906	    -10.77118378	      5.33615091	      5.19575355	      1.95805534	     -5.13674311	      0.00000000	     -5.39534275	      2.12309212	      3.49279442	      6.71707383	     -6.56533701	     16.31119872	    121.53061355	     86.72056808	      1.22541797	     -8.74579182	     27.28100092	    109.39532030	     85.83704681
      1.55000000	     -0.04062108	     -0.33552679	      2.13418702	      1.70430501	      0.86860560	      0.06372475	     -3.15183506	      3.63150713	     -0.97165346	      0.00000000	      1.67278062	    -25.59434926	      0.00000000	      1.58696403	    -10.54971167	      5.37052989	      4.91382094	      1.88759414	     -5.24527412	      0.00000000	     -5.47904591	      2.13107374	      3.34782251	      6.94077397	     -6.80549125	     16.49998929	    121.30026418	     86.49989713	      2.09881815	     -8.82030800	     27.95144936	    108.49099786	     85.28766567
      1.56666670	     -0.14913857	     -0.30187587	      2.27939166	      1.70498459	      0.86826850	      0.06080319	     -3.06647865	      3.34258482	     -0.99047109	      0.00000000	      1.67728823	    -25.62264332	      0.00000000	      1.54946161	    -10.28484980	      5.37043013	      4.63338087	      1.91813524	     -5.26900533	      0.00000000	     -5.42841053	      2.07156473	      3.22625863	      7.20856623	     -7.02970891	     16.30529392	    121.39961051	     86.44423403	      2.40913738	     -8.83936624	     27.99094532	    108.37257386	     85.16450274
